<svg width="24" height="24" viewBox="0 0 24 24" fill="none" xmlns="http://www.w3.org/2000/svg">
<path d="M8 17.0002H16M11.0177 2.76423L4.23539 8.03936C3.78202 8.39198 3.55534 8.56829 3.39203 8.78909C3.24737 8.98468 3.1396 9.20502 3.07403 9.43929C3 9.70375 3 9.99093 3 10.5653V17.8002C3 18.9203 3 19.4804 3.21799 19.9082C3.40973 20.2845 3.71569 20.5905 4.09202 20.7822C4.51984 21.0002 5.07989 21.0002 6.2 21.0002H17.8C18.9201 21.0002 19.4802 21.0002 19.908 20.7822C20.2843 20.5905 20.5903 20.2845 20.782 19.9082C21 19.4804 21 18.9203 21 17.8002V10.5653C21 9.99093 21 9.70375 20.926 9.43929C20.8604 9.20502 20.7526 8.98468 20.608 8.78909C20.4447 8.56829 20.218 8.39198 19.7646 8.03936L12.9823 2.76423C12.631 2.49098 12.4553 2.35435 12.2613 2.30184C12.0902 2.2555 11.9098 2.2555 11.7387 2.30184C11.5447 2.35435 11.369 2.49098 11.0177 2.76423Z" stroke="white" stroke-width="2" stroke-linecap="round" stroke-linejoin="round"/>
</svg>
