<svg width="256" height="256" viewBox="0 0 256 256" fill="none" xmlns="http://www.w3.org/2000/svg">
<g clip-path="url(#clip0_349_79)">
<path d="M208 128L128 208M192 40L40 192" stroke="#A3E635" stroke-width="16" stroke-linecap="round" stroke-linejoin="round"/>
<path d="M198.188 61.5576C199.277 62.6463 201.136 62.1482 201.535 60.661L212.021 21.5253C212.419 20.0381 211.059 18.6773 209.571 19.0758L170.436 29.5622C168.949 29.9606 168.45 31.8196 169.539 32.9082L198.188 61.5576Z" fill="#A3E635"/>
<path d="M218.188 145.558C219.277 146.646 221.136 146.148 221.535 144.661L232.021 105.525C232.419 104.038 231.059 102.677 229.571 103.076L190.436 113.562C188.949 113.961 188.45 115.82 189.539 116.908L218.188 145.558Z" fill="#A3E635"/>
</g>
<defs>
<clipPath id="clip0_349_79">
<rect width="256" height="256" fill="white"/>
</clipPath>
</defs>
</svg>
